<?xml version="1.0" encoding="UTF-8"?>
<!DOCTYPE svg PUBLIC "-//W3C//DTD SVG 1.1//EN" "http://www.w3.org/Graphics/SVG/1.1/DTD/svg11.dtd">
<svg xmlns="http://www.w3.org/2000/svg" version="1.1" width="512px" height="512px" style="shape-rendering:geometricPrecision; text-rendering:geometricPrecision; image-rendering:optimizeQuality; fill-rule:evenodd; clip-rule:evenodd" xmlns:xlink="http://www.w3.org/1999/xlink">
<g><path style="opacity:0.985" fill="#9eddf6" d="M 261.5,130.5 C 230.363,140.315 206.696,159.315 190.5,187.5C 154.167,187.5 117.833,187.5 81.5,187.5C 79.8004,156.657 83.4671,126.491 92.5,97C 92.1639,95.9701 91.4972,95.4701 90.5,95.5C 93.2281,94.7948 96.0614,94.1281 99,93.5C 102.135,94.471 105.301,94.971 108.5,95C 114.158,74.6754 127.158,61.6754 147.5,56C 177.353,51.0071 198.52,62.1738 211,89.5C 212.856,95.7104 214.023,102.044 214.5,108.5C 235.737,104.34 251.403,111.673 261.5,130.5 Z"/></g>
<g><path style="opacity:1" fill="#83d4ed" d="M 90.5,95.5 C 91.4972,95.4701 92.1639,95.9701 92.5,97C 83.4671,126.491 79.8004,156.657 81.5,187.5C 72.1255,187.731 62.7922,187.231 53.5,186C 31.5059,178.864 21.3392,163.697 23,140.5C 29.7525,115.099 46.2525,103.932 72.5,107C 77.3579,101.296 83.3579,97.4624 90.5,95.5 Z"/></g>
<g><path style="opacity:0.994" fill="#beeafb" d="M 511.5,309.5 C 511.5,317.833 511.5,326.167 511.5,334.5C 508.905,350.693 502.238,365.026 491.5,377.5C 476.767,356.141 456.434,347.307 430.5,351C 424.022,342.871 415.688,337.537 405.5,335C 398.128,334.486 390.794,334.486 383.5,335C 370.738,297.946 344.738,280.279 305.5,282C 301.91,282.311 298.577,283.144 295.5,284.5C 271.28,292.219 255.114,308.219 247,332.5C 245.117,339.375 244.284,346.375 244.5,353.5C 217.511,347.595 196.845,356.261 182.5,379.5C 134.726,343.005 103.726,295.338 89.5,236.5C 94.3838,237.215 99.2171,238.215 104,239.5C 123.827,214.39 149.327,205.724 180.5,213.5C 183.628,204.787 186.961,196.12 190.5,187.5C 206.696,159.315 230.363,140.315 261.5,130.5C 304.962,120.378 342.462,131.045 374,162.5C 380,171.167 386,179.833 392,188.5C 400.082,205.575 404.082,223.575 404,242.5C 442.636,232.822 473.969,243.822 498,275.5C 504.502,286.15 509.002,297.484 511.5,309.5 Z"/></g>
<g><path style="opacity:1" fill="#aee4fe" d="M 89.5,236.5 C 103.726,295.338 134.726,343.005 182.5,379.5C 178.206,387.966 176.206,396.966 176.5,406.5C 143.498,406.667 110.498,406.5 77.5,406C 35.0078,400.003 9.00784,376.169 -0.5,334.5C -0.5,325.833 -0.5,317.167 -0.5,308.5C 10.7629,261.25 40.7629,237.25 89.5,236.5 Z"/></g>
<g><path style="opacity:0.996" fill="#e3f1f9" d="M 491.5,377.5 C 503.982,406.41 497.648,430.243 472.5,449C 466.323,452.726 459.656,455.059 452.5,456C 422.168,456.5 391.835,456.667 361.5,456.5C 360.71,455.599 359.71,454.932 358.5,454.5C 312.03,429.768 287.363,390.935 284.5,338C 284.655,319.391 288.322,301.558 295.5,284.5C 298.577,283.144 301.91,282.311 305.5,282C 344.738,280.279 370.738,297.946 383.5,335C 390.794,334.486 398.128,334.486 405.5,335C 415.688,337.537 424.022,342.871 430.5,351C 456.434,347.307 476.767,356.141 491.5,377.5 Z"/></g>
<g><path style="opacity:1" fill="#d7edf9" d="M 295.5,284.5 C 288.322,301.558 284.655,319.391 284.5,338C 287.363,390.935 312.03,429.768 358.5,454.5C 312.67,455.499 266.67,455.832 220.5,455.5C 193.941,449.937 179.274,433.604 176.5,406.5C 176.206,396.966 178.206,387.966 182.5,379.5C 196.845,356.261 217.511,347.595 244.5,353.5C 244.284,346.375 245.117,339.375 247,332.5C 255.114,308.219 271.28,292.219 295.5,284.5 Z"/></g>
<g><path style="opacity:0.849" fill="#dbeef9" d="M 358.5,454.5 C 359.71,454.932 360.71,455.599 361.5,456.5C 314.33,456.832 267.33,456.499 220.5,455.5C 266.67,455.832 312.67,455.499 358.5,454.5 Z"/></g>
</svg>
