<?xml version="1.0" encoding="UTF-8"?>
<!DOCTYPE svg PUBLIC "-//W3C//DTD SVG 1.1//EN" "http://www.w3.org/Graphics/SVG/1.1/DTD/svg11.dtd">
<svg xmlns="http://www.w3.org/2000/svg" version="1.1" width="512px" height="512px" style="shape-rendering:geometricPrecision; text-rendering:geometricPrecision; image-rendering:optimizeQuality; fill-rule:evenodd; clip-rule:evenodd" xmlns:xlink="http://www.w3.org/1999/xlink">
<g><path style="opacity:0.993" fill="#dbdbd9" d="M 511.5,208.5 C 511.5,216.833 511.5,225.167 511.5,233.5C 507.112,256.273 496.446,275.607 479.5,291.5C 460.187,277.018 438.521,267.685 414.5,263.5C 406.373,240.093 391.706,221.927 370.5,209C 329.392,185.914 286.392,181.581 241.5,196C 215.819,205.681 196.319,222.515 183,246.5C 179.967,252.223 177.801,258.223 176.5,264.5C 148.047,263.701 123.88,273.368 104,293.5C 101.123,297.418 98.6227,301.585 96.5,306C 78.7217,305.323 61.7217,308.49 45.5,315.5C 21.2932,303.63 5.95985,284.63 -0.5,258.5C -0.5,250.833 -0.5,243.167 -0.5,235.5C 7.82722,202.672 28.4939,181.838 61.5,173C 73.0494,170.598 84.7161,169.098 96.5,168.5C 102.638,155.195 112.305,145.362 125.5,139C 141.28,131.388 157.947,127.222 175.5,126.5C 189.466,89.7072 215.466,65.8738 253.5,55C 297.001,44.8059 337.668,51.4726 375.5,75C 391.626,86.1305 403.793,100.63 412,118.5C 413.145,121.432 413.978,124.432 414.5,127.5C 447.009,131.501 473.843,145.834 495,170.5C 503.333,182.02 508.833,194.686 511.5,208.5 Z"/></g>
<g><path style="opacity:0.999" fill="#c9c9c0" d="M 479.5,291.5 C 493.06,302.289 502.394,315.956 507.5,332.5C 504.532,340.665 501.699,348.998 499,357.5C 484.119,389.54 459.285,409.04 424.5,416C 295.853,417.651 167.187,417.984 38.5,417C 26.4183,415.251 15.085,411.417 4.5,405.5C 3.89333,405.624 3.55999,405.957 3.5,406.5C 1.55877,402.676 0.225438,398.676 -0.5,394.5C -0.5,387.167 -0.5,379.833 -0.5,372.5C 5.16223,345.824 20.4956,326.824 45.5,315.5C 61.7217,308.49 78.7217,305.323 96.5,306C 98.6227,301.585 101.123,297.418 104,293.5C 123.88,273.368 148.047,263.701 176.5,264.5C 177.801,258.223 179.967,252.223 183,246.5C 196.319,222.515 215.819,205.681 241.5,196C 286.392,181.581 329.392,185.914 370.5,209C 391.706,221.927 406.373,240.093 414.5,263.5C 438.521,267.685 460.187,277.018 479.5,291.5 Z"/></g>
<g><path style="opacity:1" fill="#abaea7" d="M 507.5,332.5 C 509.301,336.707 510.634,341.04 511.5,345.5C 511.5,353.833 511.5,362.167 511.5,370.5C 508.198,389.438 499.865,405.771 486.5,419.5C 483.167,422.167 480.167,425.167 477.5,428.5C 457.652,446.248 434.319,456.748 407.5,460C 296.833,460.667 186.167,460.667 75.5,460C 47.8709,456.778 26.0375,443.944 10,421.5C 7.26456,416.701 5.0979,411.701 3.5,406.5C 3.55999,405.957 3.89333,405.624 4.5,405.5C 15.085,411.417 26.4183,415.251 38.5,417C 167.187,417.984 295.853,417.651 424.5,416C 459.285,409.04 484.119,389.54 499,357.5C 501.699,348.998 504.532,340.665 507.5,332.5 Z"/></g>
<g><path style="opacity:0.024" fill="#b7b8b1" d="M 486.5,419.5 C 484.5,423.5 481.5,426.5 477.5,428.5C 480.167,425.167 483.167,422.167 486.5,419.5 Z"/></g>
</svg>
