<?xml version="1.0" encoding="UTF-8"?>
<!DOCTYPE svg PUBLIC "-//W3C//DTD SVG 1.1//EN" "http://www.w3.org/Graphics/SVG/1.1/DTD/svg11.dtd">
<svg xmlns="http://www.w3.org/2000/svg" version="1.1" width="512px" height="512px" style="shape-rendering:geometricPrecision; text-rendering:geometricPrecision; image-rendering:optimizeQuality; fill-rule:evenodd; clip-rule:evenodd" xmlns:xlink="http://www.w3.org/1999/xlink">
<g><path style="opacity:1" fill="#dbe0ea" d="M 436.5,321.5 C 436.503,299.677 430.003,280.01 417,262.5C 405.11,246.271 390.443,233.271 373,223.5C 364.343,192.185 345.509,169.351 316.5,155C 294.165,146.375 271.832,146.375 249.5,155C 240.753,159.417 232.253,164.25 224,169.5C 192.599,120.797 148.099,100.63 90.5,109C 81.6189,111.182 73.1189,114.349 65,118.5C 64.5045,116.527 64.3379,114.527 64.5,112.5C 70.8889,67.6078 94.8889,36.1078 136.5,18C 190.496,0.55572 236.663,12.7224 275,54.5C 279.58,60.6598 283.914,66.9931 288,73.5C 313.841,53.4649 342.674,47.6315 374.5,56C 407.066,69.5829 428.233,93.4163 438,127.5C 470.371,145.538 491.037,172.538 500,208.5C 504.663,253.999 488.163,289.499 450.5,315C 446.202,317.982 441.536,320.149 436.5,321.5 Z"/></g>
<g><path style="opacity:1" fill="#f9fbfe" d="M 224.5,49.5 C 233.782,49.7819 239.448,54.4486 241.5,63.5C 240.871,69.6309 237.538,72.1309 231.5,71C 220.222,66.3521 217.889,59.1855 224.5,49.5 Z"/></g>
<g><path style="opacity:1" fill="#f9fbfe" d="M 358.5,81.5 C 376.641,82.0586 387.308,91.2253 390.5,109C 388.824,122.185 381.491,126.852 368.5,123C 354.165,116.826 347.665,105.992 349,90.5C 351.406,86.5915 354.572,83.5915 358.5,81.5 Z"/></g>
<g><path style="opacity:0.997" fill="#bec3d2" d="M 436.5,321.5 C 427.14,326.177 417.14,329.01 406.5,330C 362.835,330.5 319.168,330.667 275.5,330.5C 270.322,319.313 263.989,308.813 256.5,299C 255.551,298.383 254.718,298.549 254,299.5C 250.97,304.015 247.803,308.349 244.5,312.5C 241.252,307.684 237.752,303.018 234,298.5C 226.222,308.389 219.722,319.056 214.5,330.5C 177.832,330.667 141.165,330.5 104.5,330C 55.6532,322.154 24.8198,294.321 12,246.5C 4.72556,205.071 15.8922,169.571 45.5,140C 51.0261,135.64 56.6928,131.474 62.5,127.5C 63.1668,122.349 63.8335,117.349 64.5,112.5C 64.3379,114.527 64.5045,116.527 65,118.5C 73.1189,114.349 81.6189,111.182 90.5,109C 148.099,100.63 192.599,120.797 224,169.5C 232.253,164.25 240.753,159.417 249.5,155C 271.832,146.375 294.165,146.375 316.5,155C 345.509,169.351 364.343,192.185 373,223.5C 390.443,233.271 405.11,246.271 417,262.5C 430.003,280.01 436.503,299.677 436.5,321.5 Z"/></g>
<g><path style="opacity:1" fill="#f8fafd" d="M 395.5,113.5 C 400.146,113.976 403.146,116.476 404.5,121C 403.202,124.205 400.868,125.205 397.5,124C 393.151,121.091 392.484,117.591 395.5,113.5 Z"/></g>
<g><path style="opacity:1" fill="#9da3b5" d="M 244.5,312.5 C 241.481,318.539 238.481,324.539 235.5,330.5C 228.5,330.5 221.5,330.5 214.5,330.5C 219.722,319.056 226.222,308.389 234,298.5C 237.752,303.018 241.252,307.684 244.5,312.5 Z"/></g>
<g><path style="opacity:0.998" fill="#34c3fe" d="M 275.5,330.5 C 276.234,331.708 276.567,333.041 276.5,334.5C 269.15,351.45 257.483,355.283 241.5,346C 238.5,342.486 236.167,338.653 234.5,334.5C 234.433,333.041 234.766,331.708 235.5,330.5C 238.481,324.539 241.481,318.539 244.5,312.5C 247.803,308.349 250.97,304.015 254,299.5C 254.718,298.549 255.551,298.383 256.5,299C 263.989,308.813 270.322,319.313 275.5,330.5 Z"/></g>
<g><path style="opacity:1" fill="#0594ff" d="M 234.5,334.5 C 236.167,338.653 238.5,342.486 241.5,346C 257.483,355.283 269.15,351.45 276.5,334.5C 278.764,350.591 271.764,359.924 255.5,362.5C 239.236,359.924 232.236,350.591 234.5,334.5 Z"/></g>
<g><path style="opacity:1" fill="#f4faff" d="M 244.5,338.5 C 251.173,337.382 254.34,340.049 254,346.5C 251.541,349.1 249.041,349.1 246.5,346.5C 244.771,344.149 244.104,341.482 244.5,338.5 Z"/></g>
<g><path style="opacity:0.983" fill="#32c3ff" d="M 148.5,398.5 C 141.15,415.45 129.483,419.283 113.5,410C 110.5,406.486 108.167,402.653 106.5,398.5C 110.645,384.542 117.645,372.209 127.5,361.5C 137.355,372.209 144.355,384.542 148.5,398.5 Z"/></g>
<g><path style="opacity:0.983" fill="#32c4ff" d="M 425.5,408.5 C 419.492,425.006 408.492,429.506 392.5,422C 388.348,418.174 385.348,413.674 383.5,408.5C 388.444,395.275 395.444,383.275 404.5,372.5C 410.969,379.423 416.469,387.09 421,395.5C 423.207,399.624 424.707,403.957 425.5,408.5 Z"/></g>
<g><path style="opacity:0.982" fill="#32c3ff" d="M 329.5,429.5 C 324.054,445.816 313.387,450.65 297.5,444C 292.774,440.023 289.441,435.189 287.5,429.5C 292.363,416.103 299.53,404.103 309,393.5C 318.167,404.167 325,416.167 329.5,429.5 Z"/></g>
<g><path style="opacity:1" fill="#0594ff" d="M 106.5,398.5 C 108.167,402.653 110.5,406.486 113.5,410C 129.483,419.283 141.15,415.45 148.5,398.5C 150.764,414.591 143.764,423.924 127.5,426.5C 111.236,423.924 104.236,414.591 106.5,398.5 Z"/></g>
<g><path style="opacity:1" fill="#f4faff" d="M 116.5,402.5 C 123.173,401.382 126.34,404.049 126,410.5C 123.541,413.1 121.041,413.1 118.5,410.5C 116.771,408.149 116.104,405.482 116.5,402.5 Z"/></g>
<g><path style="opacity:1" fill="#0594ff" d="M 383.5,408.5 C 385.348,413.674 388.348,418.174 392.5,422C 408.492,429.506 419.492,425.006 425.5,408.5C 428.596,425.268 421.596,434.935 404.5,437.5C 387.955,434.744 380.955,425.077 383.5,408.5 Z"/></g>
<g><path style="opacity:1" fill="#f3faff" d="M 395.5,412.5 C 401.87,413.182 404.203,416.515 402.5,422.5C 397.477,423.809 394.477,421.809 393.5,416.5C 393.752,414.927 394.418,413.594 395.5,412.5 Z"/></g>
<g><path style="opacity:1" fill="#0594ff" d="M 287.5,429.5 C 289.441,435.189 292.774,440.023 297.5,444C 313.387,450.65 324.054,445.816 329.5,429.5C 333.041,446.401 326.208,456.067 309,458.5C 296.595,457.973 289.261,451.64 287,439.5C 286.612,436.151 286.779,432.817 287.5,429.5 Z"/></g>
<g><path style="opacity:1" fill="#f4faff" d="M 298.5,434.5 C 305.805,433.961 308.471,437.128 306.5,444C 299.621,444.292 296.954,441.125 298.5,434.5 Z"/></g>
<g><path style="opacity:0.985" fill="#31c4ff" d="M 212.5,472.5 C 209.215,482.938 202.049,488.938 191,490.5C 180.531,488.525 173.698,482.525 170.5,472.5C 174.936,458.955 181.936,446.955 191.5,436.5C 201.064,446.955 208.064,458.955 212.5,472.5 Z"/></g>
<g><path style="opacity:1" fill="#0594ff" d="M 170.5,472.5 C 173.698,482.525 180.531,488.525 191,490.5C 202.049,488.938 209.215,482.938 212.5,472.5C 214.884,485.232 210.217,494.398 198.5,500C 183.689,502.861 174.189,497.028 170,482.5C 169.253,479.076 169.42,475.743 170.5,472.5 Z"/></g>
<g><path style="opacity:1" fill="#f2f9ff" d="M 181.5,476.5 C 189.096,476.898 191.429,480.398 188.5,487C 181.597,486.592 179.264,483.092 181.5,476.5 Z"/></g>
</svg>
